<svg width="28" height="15" viewBox="0 0 28 15" fill="none" xmlns="http://www.w3.org/2000/svg">
<path d="M21.5 12.625L7.125 12.625C4.3625 12.625 2.125 10.3875 2.125 7.625C2.125 4.8625 4.3625 2.625 7.125 2.625L22.75 2.625C24.475 2.625 25.875 4.025 25.875 5.75C25.875 7.475 24.475 8.875 22.75 8.875L9.625 8.875C8.9375 8.875 8.375 8.3125 8.375 7.625C8.375 6.9375 8.9375 6.375 9.625 6.375L21.5 6.375V4.5L9.625 4.5C7.9 4.5 6.5 5.9 6.5 7.625C6.5 9.35 7.9 10.75 9.625 10.75L22.75 10.75C25.5125 10.75 27.75 8.5125 27.75 5.75C27.75 2.9875 25.5125 0.75 22.75 0.75L7.125 0.75C3.325 0.75 0.25 3.825 0.25 7.625C0.25 11.425 3.325 14.5 7.125 14.5L21.5 14.5V12.625Z" fill="white"/>
</svg>
